<svg version="1.2" xmlns="http://www.w3.org/2000/svg" viewBox="0 0 14 19" width="29" height="40">
	<title>logo_satc_2-svg</title>
	<style>
		.s0 { fill: #37373f } 
	</style>
	<path id="path23306" fill-rule="evenodd" class="s0" d="m0 4l2.9 2.3v4.5l-2.9-2.4zm2.9 6.9l0.5 4.5-3.4-3.5v-3.5c0 0 2.9 2.5 2.9 2.5zm4 3.9v4l-3.5-3.4-0.5-4.5c0 0 3.9 3.9 4 3.9q0 0 0 0zm-4-8.5l-2.9-2.3 3.4-2 3.5-2 3.4 2-3.4 2-4 2.3c0 0 0.5-4.3 0.5-4.3 0 0-0.5 4.3-0.5 4.3zm10.8-2.3l-2.9 2.3c0-0.1-0.5-4.3-0.5-4.3zm-2.9 2.3q0 0 0 0zm-0.5-4.3q0 0 0 0zm0.5 4.3l2.9-2.3v4.4zm2.9 2.2v3.5l-3.4 3.4 0.5-4.5c0 0 2.9-2.4 2.9-2.4zm-6.9 6.4q0 0 0 0l3.5 0.5-3.5 3.5v-4q0 0 0 0zm3.5 0.5zm0.5-9.1l2.9 2.2-2.9 2.4zm-0.5-4.2q0 0 0 0 0 0 0 0zm0 0c0 0 0.5 4.2 0.5 4.2l-4-2.3zm0.6 4.3q0 0 0 0zm-0.6 9.1zm0.6-4.5c0 0-4 3.9-4 4l3.4 0.5z"/>
</svg>